<?xml version="1.0" encoding="UTF-8"?>
<svg version="1.1" xmlns="http://www.w3.org/2000/svg" width="1024" height="1024">
<path d="M0 0 C3.88414196 0.00767628 7.76824859 -0.00219559 11.65238541 -0.00973 C18.44617312 -0.02052122 25.2398892 -0.02026349 32.03368013 -0.01258852 C42.13654829 -0.00120647 52.2393564 -0.0070602 62.34222419 -0.01621344 C80.38950537 -0.03198652 98.43675464 -0.03065111 116.48403884 -0.0219767 C132.277743 -0.01442296 148.07143548 -0.01246323 163.86514109 -0.01604463 C165.43804335 -0.01638837 165.43804335 -0.01638837 167.04272142 -0.01673904 C171.299591 -0.0176731 175.55646057 -0.0186283 179.81333013 -0.01961833 C219.72665683 -0.02879044 259.63996324 -0.02048272 299.55328681 -0.00432764 C334.9954093 0.00990862 370.43749946 0.00863472 405.87962168 -0.00571062 C445.72105882 -0.02178279 485.56247803 -0.02813989 525.40391796 -0.01887383 C529.6529247 -0.01791171 533.90193145 -0.01697319 538.15093821 -0.01604463 C539.72019998 -0.01568879 539.72019998 -0.01568879 541.32116402 -0.01532575 C557.1029585 -0.01191675 572.88474 -0.01589779 588.66653269 -0.02348329 C606.61540631 -0.03206752 624.56424308 -0.02990281 642.51311212 -0.01364106 C652.55211995 -0.00484512 662.59104796 -0.00423848 672.63005369 -0.01557958 C679.34287632 -0.02232524 686.05563519 -0.01808673 692.76844841 -0.00506528 C696.58830428 0.00204391 700.40800202 0.00456824 704.22785269 -0.00628323 C733.17738487 -0.08256289 733.17738487 -0.08256289 747.50803965 3.38540266 C748.94687816 3.71596016 748.94687816 3.71596016 750.41478413 4.05319558 C776.95798446 10.35720914 800.14504694 24.48274856 819.50803965 43.38540266 C820.28276621 44.09825423 821.05749277 44.81110579 821.8556959 45.54555891 C843.41428317 65.8874358 860.84242131 99.50175117 862.6933326 129.37609448 C862.76728617 132.79534545 862.77893148 136.20940722 862.76810186 139.62944887 C862.77190753 140.93980865 862.77571321 142.25016842 862.7796342 143.60023607 C862.78988045 147.22880168 862.787769 150.85726937 862.78357884 154.48584312 C862.78120747 158.43694286 862.79038837 162.38801891 862.79806303 166.33910958 C862.80989784 173.26142115 862.81427628 180.18370638 862.81374186 187.10602759 C862.812948 197.40035414 862.82350496 207.69464748 862.83615743 217.98896516 C862.86088842 238.51850771 862.86967936 259.04804218 862.87469391 279.57759758 C862.87508568 281.17217573 862.87508568 281.17217573 862.87548535 282.79896758 C862.87574563 283.86417971 862.8760059 284.92939183 862.87627406 286.0268831 C862.87935738 297.83564247 862.88586256 309.64439959 862.89248674 321.45315741 C862.9121346 357.12834213 862.92853867 392.80352444 862.93136328 428.47871493 C862.93150437 430.19015678 862.93150437 430.19015678 862.93164831 431.93617321 C862.93202679 436.55990217 862.93239078 441.18363113 862.93275129 445.80736009 C862.93302301 449.28739446 862.93329969 452.76742884 862.93357676 456.24746321 C862.93366478 457.39740181 862.9337528 458.54734041 862.93384349 459.73212563 C862.93674793 495.85119453 862.95883493 531.97020989 862.99510019 568.08926008 C863.03585171 608.67743612 863.05952204 649.26557567 863.05982279 689.85377328 C863.05991961 694.18440702 863.06008633 698.51504076 863.06030291 702.8456745 C863.06034702 703.91196893 863.06039113 704.97826337 863.06043659 706.07686975 C863.06155519 723.21645975 863.07894594 740.35599598 863.10212223 757.49556868 C863.12499715 774.73248483 863.12916911 791.96932856 863.11457293 809.20625432 C863.10643887 819.43773867 863.11205056 829.66899448 863.13775377 839.90045098 C863.1535607 846.74691859 863.15097265 853.59322481 863.13384705 860.43968871 C863.12461674 864.332805 863.122951 868.22548272 863.14381312 872.11856397 C863.22731865 888.76517142 862.61492456 904.40021603 857.50803965 920.38540266 C857.27372254 921.12002937 857.03940543 921.85465609 856.7979878 922.61154421 C849.46990699 945.13940345 836.84528192 964.44307734 820.50803965 981.38540266 C819.79260996 982.16399641 819.07718027 982.94259016 818.3400709 983.74477766 C797.9793052 1005.289753 764.39916587 1022.71932122 734.51734783 1024.57069561 C731.09809686 1024.64464919 727.68403509 1024.65629449 724.26399343 1024.64546488 C722.95363366 1024.64927055 721.64327388 1024.65307622 720.29320624 1024.65699722 C716.66464063 1024.66724346 713.03617294 1024.66513202 709.40759919 1024.66094186 C705.45649945 1024.65857049 701.5054234 1024.66775139 697.55433273 1024.67542605 C690.63202116 1024.68726085 683.70973593 1024.6916393 676.78741472 1024.69110487 C666.49308817 1024.69031102 656.19879482 1024.70086798 645.90447715 1024.71352044 C625.3749346 1024.73825143 604.84540013 1024.74704237 584.31584473 1024.75205693 C582.72126658 1024.75244869 582.72126658 1024.75244869 581.09447473 1024.75284837 C580.0292626 1024.75310864 578.96405048 1024.75336892 577.8665592 1024.75363708 C566.05779984 1024.7567204 554.24904272 1024.76322557 542.4402849 1024.76984976 C506.76510018 1024.78949761 471.08991787 1024.80590169 435.41472738 1024.80872629 C434.27376615 1024.80882036 433.13280492 1024.80891442 431.9572691 1024.80901133 C427.33354014 1024.8093898 422.70981118 1024.8097538 418.08608222 1024.81011431 C414.60604784 1024.81038602 411.12601347 1024.8106627 407.6459791 1024.81093977 C406.4960405 1024.81102779 405.3461019 1024.81111582 404.16131668 1024.81120651 C368.04224777 1024.81411094 331.92323242 1024.83619795 295.80418222 1024.87246321 C255.21600619 1024.91321473 214.62786664 1024.93688505 174.03966903 1024.93718581 C169.70903529 1024.93728263 165.37840155 1024.93744935 161.04776781 1024.93766592 C159.98147338 1024.93771004 158.91517894 1024.93775415 157.81657255 1024.9377996 C140.67698256 1024.93891821 123.53744633 1024.95630896 106.39787363 1024.97948524 C89.16095748 1025.00236017 71.92411375 1025.00653213 54.68718798 1024.99193594 C44.45570364 1024.98380189 34.22444782 1024.98941357 23.99299133 1025.01511679 C17.14652372 1025.03092371 10.3002175 1025.02833567 3.4537536 1025.01121006 C-0.43936269 1025.00197975 -4.33204041 1025.00031401 -8.22512166 1025.02117614 C-24.87172911 1025.10468167 -40.50677372 1024.49228757 -56.49196035 1019.38540266 C-57.22658707 1019.15108555 -57.96121378 1018.91676845 -58.7181019 1018.67535082 C-81.24596114 1011.34727 -100.54963503 998.72264494 -117.49196035 982.38540266 C-118.2705541 981.66997298 -119.04914785 980.95454329 -119.85133535 980.21743391 C-136.87539217 964.12909653 -148.92184364 941.73050602 -155.74196035 919.51040266 C-155.97608633 918.75742903 -156.21021231 918.0044554 -156.45143301 917.22866438 C-157.20966581 914.62893144 -157.85587675 912.01792629 -158.49196035 909.38540266 C-158.87588664 907.81340109 -158.87588664 907.81340109 -159.26756901 906.20964192 C-162.20357271 892.20525382 -161.91782637 878.1370455 -161.87736302 863.89344231 C-161.86968674 860.00930035 -161.8795586 856.12519372 -161.88709302 852.2410569 C-161.89788424 845.44726919 -161.89762651 838.65355311 -161.88995153 831.85976218 C-161.87856949 821.75689402 -161.88442322 811.65408591 -161.89357646 801.55121812 C-161.90934954 783.50393694 -161.90801413 765.45668767 -161.89933972 747.40940347 C-161.89178598 731.61569931 -161.88982625 715.82200682 -161.89340765 700.02830122 C-161.89363681 698.97969971 -161.89386596 697.9310982 -161.89410206 696.85072088 C-161.89503611 692.59385131 -161.89599132 688.33698174 -161.89698135 684.08011218 C-161.90615345 644.16678548 -161.89784573 604.25347907 -161.88169066 564.3401555 C-161.86745439 528.89803301 -161.8687283 493.45594285 -161.88307364 458.01382063 C-161.8991458 418.17238349 -161.90550291 378.33096428 -161.89623684 338.48952435 C-161.89527473 334.2405176 -161.8943362 329.99151085 -161.89340765 325.7425041 C-161.89317042 324.69632959 -161.89293319 323.65015507 -161.89268877 322.57227829 C-161.88927977 306.79048381 -161.8932608 291.00870231 -161.90084631 275.22690962 C-161.90943053 257.278036 -161.90726582 239.32919923 -161.89100408 221.38033019 C-161.88220814 211.34132236 -161.88160149 201.30239435 -161.8929426 191.26338862 C-161.89968825 184.55056599 -161.89544975 177.83780712 -161.88242829 171.1249939 C-161.8753191 167.30513803 -161.87279478 163.48544029 -161.88364624 159.66558961 C-161.9599259 130.71605744 -161.9599259 130.71605744 -158.49196035 116.38540266 C-158.27158869 115.42617698 -158.05121703 114.46695131 -157.82416744 113.47865818 C-151.52015388 86.93545785 -137.39461445 63.74839537 -118.49196035 44.38540266 C-117.77910879 43.6106761 -117.06625723 42.83594954 -116.3318041 42.03774641 C-100.2569324 25.00138705 -77.83428343 12.95466601 -55.61696035 6.13540266 C-54.86398672 5.90127669 -54.11101309 5.66715071 -53.33522207 5.42593001 C-50.73548913 4.66769721 -48.12448398 4.02148627 -45.49196035 3.38540266 C-44.44395931 3.12945181 -43.39595826 2.87350095 -42.31619961 2.609794 C-28.31181151 -0.32620969 -14.24360319 -0.04046335 0 0 Z " fill="#000418" transform="translate(161.49196035414934,-0.38540266267955303)"/>
<path d="M0 0 C7.98727534 -0.00733299 15.9745492 -0.01283919 23.9618271 -0.0161913 C27.67308474 -0.01780245 31.38434003 -0.01997726 35.09559631 -0.02357483 C71.92836242 -0.05829408 107.0271972 0.17810813 143 9 C143.67619385 9.15146484 144.3523877 9.30292969 145.04907227 9.45898438 C147.08426915 10.02336884 148.79870676 10.78558011 150.6796875 11.7421875 C151.36160156 12.08636719 152.04351563 12.43054688 152.74609375 12.78515625 C153.44863281 13.14480469 154.15117188 13.50445312 154.875 13.875 C155.56980469 14.22691406 156.26460937 14.57882812 156.98046875 14.94140625 C158.35180059 15.63611108 159.7221015 16.33285507 161.09130859 17.03173828 C162.77238642 17.88453371 164.46359077 18.71730439 166.15625 19.546875 C169.07085803 21.03620768 171.84658466 22.64533862 174.625 24.375 C175.54539062 24.93960937 176.46578125 25.50421875 177.4140625 26.0859375 C180.17492274 28.12947454 181.91121218 30.28964981 184 33 C186.07707591 34.89135197 188.22198789 36.66444624 190.390625 38.44921875 C191.18726563 39.21685547 191.18726563 39.21685547 192 40 C192 40.66 192 41.32 192 42 C192.99 42.33 193.98 42.66 195 43 C196.54827264 45.12039624 197.94415951 47.20587422 199.3125 49.4375 C199.71057861 50.0763916 200.10865723 50.7152832 200.51879883 51.37353516 C201.31839466 52.65980636 202.1145916 53.94819722 202.90722656 55.23876953 C203.81688873 56.70487831 204.75988637 58.15023896 205.7109375 59.58984375 C221.5143241 84.04746587 223.4115668 118.6555992 218.74609375 146.6484375 C214.09985852 167.52000727 205.19099883 188.80473478 188.53125 202.81640625 C185.86634386 205.11529904 183.48625579 207.57468734 181.0625 210.125 C176.18719225 215.05371488 170.95212106 218.50636373 165 222 C164.23429688 222.51175781 163.46859375 223.02351562 162.6796875 223.55078125 C149.46232413 232.22047553 131.69621263 236.97401668 116.12753201 238.70668316 C113.84683872 239.02111591 111.64614399 239.50951368 109.40089417 240.01728821 C104.03188112 241.10262238 98.88912285 241.27609039 93.42553711 241.24291992 C92.42106537 241.24481827 91.41659363 241.24671661 90.38168335 241.24867249 C87.09682141 241.25234579 83.81218566 241.24173087 80.52734375 241.23046875 C78.23474656 241.22927556 75.94214888 241.22882408 73.64955139 241.2290802 C68.86439926 241.22752165 64.07932261 241.21927556 59.29418945 241.20581055 C53.14697484 241.18873495 46.99984233 241.184999 40.85260677 241.18575573 C36.12847605 241.18548465 31.40436344 241.18001487 26.68023872 241.17275429 C24.41191304 241.16956431 22.1435853 241.16759945 19.87525749 241.16686058 C16.72010625 241.16470539 13.56504433 241.15598164 10.40991211 241.14526367 C9.46609177 241.14571686 8.52227142 241.14617004 7.54985046 241.14663696 C1.11448214 241.11448214 1.11448214 241.11448214 0 240 C-0.09804237 236.91548172 -0.12990727 233.85333935 -0.12025452 230.76841736 C-0.12110894 229.78751037 -0.12196337 228.80660338 -0.12284368 227.79597193 C-0.12450146 224.48237138 -0.11897226 221.16882056 -0.11352539 217.85522461 C-0.11324356 215.49057517 -0.11340118 213.12592564 -0.1139679 210.76127625 C-0.11422605 204.98951639 -0.10987474 199.21777304 -0.10353024 193.44601696 C-0.09639628 186.73250885 -0.09488634 180.01900312 -0.09374207 173.30549175 C-0.09155123 161.33215702 -0.08489029 149.35882909 -0.07543945 137.38549805 C-0.06626615 125.75170933 -0.05918492 114.11792246 -0.05493164 102.48413086 C-0.05466892 101.76751464 -0.05440619 101.05089843 -0.05413551 100.31256657 C-0.05283051 96.71766012 -0.05156679 93.12275365 -0.05032361 89.52784717 C-0.03995001 59.68522668 -0.02225671 29.84261413 0 0 Z " fill="#8D5FD2" transform="translate(712,386)"/>
<path d="M0 0 C1.07839645 -0.00630432 2.15679291 -0.01260864 3.26786804 -0.019104 C4.43864395 -0.01505554 5.60941986 -0.01100708 6.81567383 -0.00683594 C8.01702469 -0.00874939 9.21837555 -0.01066284 10.45613098 -0.01263428 C13.004122 -0.0139978 15.55211992 -0.0102898 18.10009766 -0.00195312 C21.98917427 0.00869724 25.87778399 -0.00181895 29.7668457 -0.01464844 C32.24145609 -0.01332596 34.7160662 -0.01076174 37.19067383 -0.00683594 C38.35132858 -0.0108844 39.51198334 -0.01493286 40.70780945 -0.019104 C46.43712594 0.0139072 51.4817537 0.11384198 56.83520508 2.25878906 C59.21411133 4.84863281 59.21411133 4.84863281 61.39770508 8.19628906 C62.25485259 9.4725275 63.1143608 10.7471826 63.97583008 12.02050781 C64.66128906 13.04797119 64.66128906 13.04797119 65.3605957 14.09619141 C68.01046208 17.98236961 70.8398539 21.73606443 73.64770508 25.50878906 C78.25022653 31.73045076 82.81450996 37.97743849 87.33520508 44.25878906 C93.51596925 52.84255772 99.78306447 61.36080524 106.0690918 69.86767578 C107.82736462 72.24817399 109.583657 74.63011804 111.33911133 77.01269531 C111.91604736 77.79572021 112.4929834 78.57874512 113.08740234 79.38549805 C114.25376574 80.96926933 115.41961771 82.55341738 116.58496094 84.13793945 C119.48733722 88.08240202 122.39976166 92.0185457 125.33520508 95.93847656 C126.50257882 97.50305341 127.66924664 99.06815721 128.83520508 100.63378906 C129.4061792 101.39860596 129.97715332 102.16342285 130.56542969 102.95141602 C133.74170436 107.25514526 136.75678535 111.62350339 139.65161133 116.12207031 C140.59230469 117.57830811 140.59230469 117.57830811 141.55200195 119.06396484 C142.76089014 120.95181325 143.95427728 122.84969925 145.13012695 124.75830078 C145.6734668 125.6079541 146.21680664 126.45760742 146.77661133 127.33300781 C147.24784424 128.09186279 147.71907715 128.85071777 148.20458984 129.63256836 C149.7718697 131.54198133 149.7718697 131.54198133 152.52636719 131.50415039 C153.66924194 131.38269653 153.66924194 131.38269653 154.83520508 131.25878906 C154.83520508 131.91878906 154.83520508 132.57878906 154.83520508 133.25878906 C154.17520508 133.58878906 153.51520508 133.91878906 152.83520508 134.25878906 C153.90921615 137.17396198 154.61330683 139.03689082 156.83520508 141.25878906 C156.82912955 140.53818833 156.82305403 139.8175876 156.8167944 139.07515049 C156.66952155 121.566611 156.52777851 104.05803557 156.39224148 86.54940128 C156.32656336 78.08247009 156.25899206 69.6155618 156.18701172 61.14868164 C156.12430133 53.77164496 156.06509428 46.39459004 156.01014954 39.01749128 C155.98091484 35.1089499 155.94988836 31.20044076 155.91467094 27.29194832 C155.88161632 23.61735547 155.85322614 19.94275687 155.82849884 16.26809883 C155.81380058 14.26796872 155.79407998 12.26787752 155.77424622 10.26779175 C155.76368698 8.4987574 155.76368698 8.4987574 155.75291443 6.69398499 C155.74047022 5.14675546 155.74047022 5.14675546 155.72777462 3.56826878 C155.83520508 1.25878906 155.83520508 1.25878906 156.83520508 0.25878906 C158.70156296 0.15968346 160.57168702 0.13079645 162.44067383 0.12939453 C163.63861572 0.12624237 164.83655762 0.12309021 166.07080078 0.11984253 C167.3749292 0.12186676 168.67905762 0.12389099 170.02270508 0.12597656 C171.36409523 0.12530346 172.70548527 0.12433338 174.046875 0.12307739 C176.86142129 0.12160071 179.6759359 0.12375402 182.49047852 0.12841797 C186.10561139 0.13411526 189.72067003 0.13083609 193.33580017 0.1248455 C196.1066545 0.12123909 198.8774911 0.12237884 201.64834595 0.1249733 C203.63210091 0.12596873 205.61585655 0.12292165 207.59960938 0.11984253 C209.39652222 0.12457077 209.39652222 0.12457077 211.22973633 0.12939453 C212.29039307 0.13019012 213.3510498 0.13098572 214.44384766 0.13180542 C216.83520508 0.25878906 216.83520508 0.25878906 217.83520508 1.25878906 C217.9332359 4.31805951 217.96511406 7.35476794 217.95545959 10.41444397 C217.95674123 11.8735538 217.95674123 11.8735538 217.95804876 13.3621406 C217.95970652 16.64810223 217.95417737 19.93401371 217.94873047 23.2199707 C217.94844863 25.56491596 217.94860626 27.90986131 217.94917297 30.25480652 C217.9494611 36.64298099 217.943562 43.03113686 217.93659902 49.41930699 C217.93099852 55.41230093 217.9299772 61.40529487 217.92894714 67.39829092 C217.92675631 79.27179709 217.92009539 91.14529639 217.91064453 103.01879883 C217.90147122 114.55558233 217.89438999 126.09236398 217.89013672 137.62915039 C217.889874 138.33979261 217.88961127 139.05043484 217.88934059 139.78261168 C217.88803559 143.34754999 217.88677187 146.91248831 217.88552868 150.47742665 C217.8751551 180.07121867 217.85746182 209.66500354 217.83520508 239.25878906 C214.40422346 240.97427987 210.46562876 240.40019252 206.69067383 240.39160156 C205.76990555 240.39255829 204.84913727 240.39351501 203.90046692 240.39450073 C201.94259574 240.39518265 199.98472233 240.39332754 198.02685547 240.38916016 C195.07294406 240.38387888 192.11918943 240.38906959 189.1652832 240.39550781 C161.89650168 240.40835832 161.89650168 240.40835832 156.58520508 237.44628906 C155.24926758 236.05175781 155.24926758 236.05175781 153.83520508 234.25878906 C152.94961914 233.13923828 152.94961914 233.13923828 152.04614258 231.99707031 C150.10307237 229.44633582 148.21098218 226.86270931 146.32250977 224.27148438 C143.97254364 221.09139232 141.55717735 217.96194477 139.15014648 214.82495117 C132.61198463 206.30400554 126.18768948 197.72095426 119.99633789 188.94384766 C117.94126335 186.05259361 116.01854744 183.43818531 113.47583008 180.95019531 C111.83520508 179.25878906 111.83520508 179.25878906 111.83520508 176.25878906 C111.17520508 176.25878906 110.51520508 176.25878906 109.83520508 176.25878906 C108.38989258 174.45800781 108.38989258 174.45800781 106.71020508 171.94628906 C103.38049359 167.03233589 99.89604935 162.2603723 96.33911133 157.50878906 C94.83520508 155.25878906 94.83520508 155.25878906 94.83520508 153.25878906 C94.17520508 153.25878906 93.51520508 153.25878906 92.83520508 153.25878906 C91.28442383 151.31738281 91.28442383 151.31738281 89.52270508 148.69628906 C87.36203871 145.50953218 85.18785075 142.35375736 82.89770508 139.25878906 C80.83520508 136.25878906 80.83520508 136.25878906 80.83520508 134.25878906 C80.17520508 134.25878906 79.51520508 134.25878906 78.83520508 134.25878906 C78.83520508 133.26878906 78.83520508 132.27878906 78.83520508 131.25878906 C77.91481445 130.87013672 77.91481445 130.87013672 76.97583008 130.47363281 C74.58782196 129.11839463 73.903562 128.18744458 72.58520508 125.82128906 C68.95908099 119.66478554 64.90117286 113.32475684 59.83520508 108.25878906 C59.50520508 107.57816406 59.17520508 106.89753906 58.83520508 106.19628906 C57.98930566 104.09013305 57.98930566 104.09013305 55.83520508 103.25878906 C55.83612687 103.95269934 55.83704866 104.64660961 55.83799839 105.36154747 C55.86006051 122.22789866 55.87662 139.09424529 55.88701725 155.96060753 C55.89217862 164.11697278 55.89921831 172.27332842 55.91064453 180.4296875 C55.9205962 187.53684611 55.92705966 194.64399775 55.92929357 201.75116313 C55.93059985 205.5160773 55.93368053 209.28097156 55.94093513 213.04587936 C55.94895859 217.24364871 55.9491959 221.44138317 55.94873047 225.63916016 C55.95232574 226.89431931 55.95592102 228.14947845 55.95962524 229.44267273 C55.95825058 230.58133286 55.95687592 231.71999298 55.95545959 232.89315796 C55.95638139 233.8868508 55.95730318 234.88054363 55.95825291 235.90434837 C55.83520508 238.25878906 55.83520508 238.25878906 54.83520508 240.25878906 C53.89679276 240.27425026 53.89679276 240.27425026 52.93942261 240.2900238 C46.41792906 240.39834922 39.89656643 240.51292542 33.37524414 240.63110352 C30.94265486 240.67436899 28.51003686 240.7160499 26.07739258 240.75610352 C22.57730458 240.81400938 19.07736007 240.87764529 15.57739258 240.94238281 C13.95050003 240.96745155 13.95050003 240.96745155 12.29074097 240.99302673 C6.27831085 241.10478274 6.27831085 241.10478274 0.35131836 242.02856445 C-2.16479492 242.25878906 -2.16479492 242.25878906 -4.28877449 240.86236763 C-7.08802663 236.97750969 -6.73030255 233.51177728 -6.69723511 228.83175659 C-6.70614749 227.86603167 -6.71505987 226.90030674 -6.72424233 225.90531743 C-6.74927753 222.66080933 -6.74577347 219.41695719 -6.74243164 216.17236328 C-6.75443639 213.84991542 -6.76816504 211.52747592 -6.78349304 209.20504761 C-6.8199864 202.89127507 -6.83153655 196.57767624 -6.8381629 190.26381063 C-6.84764824 184.33452039 -6.87424916 178.40532559 -6.90028764 172.47608866 C-6.95114023 160.72968513 -6.9827364 148.98330796 -7.00366211 137.23681641 C-7.02399492 125.8311357 -7.0583504 114.42561017 -7.1081543 103.02001953 C-7.1112212 102.31727028 -7.11428811 101.61452102 -7.11744796 100.89047633 C-7.12051035 100.18895686 -7.12357275 99.4874374 -7.12672794 98.76465976 C-7.18039356 86.44571132 -7.22241787 74.12675662 -7.25812149 61.80774307 C-7.27334749 56.55655402 -7.2920261 51.30539375 -7.31332016 46.05422592 C-7.33761482 39.87700289 -7.35171481 33.69983856 -7.35778236 27.52257156 C-7.36158115 25.24969393 -7.36881944 22.97681918 -7.37966347 20.70396423 C-7.39381487 17.61319036 -7.39569365 14.5226543 -7.39425659 11.43185425 C-7.40124474 10.52214461 -7.4082329 9.61243498 -7.41543281 8.67515838 C-7.39135378 1.98777694 -6.82463938 0.01141262 0 0 Z " fill="#8D5FD2" transform="translate(93.164794921875,386.7412109375)"/>
<path d="M0 0 C1.00379196 -0.00306656 1.00379196 -0.00306656 2.02786255 -0.00619507 C4.25566473 -0.00921575 6.4827337 0.0093668 8.71044922 0.02832031 C10.28620217 0.0313864 11.86195786 0.03325605 13.43771362 0.03399658 C16.76522009 0.03861354 20.0924865 0.05305191 23.41992188 0.07519531 C27.57788813 0.10279463 31.73566258 0.11424818 35.89371109 0.11901093 C52.37429658 0.13969344 68.846232 0.31581281 85.31982422 0.80957031 C87.25439987 0.86694366 87.25439987 0.86694366 89.22805786 0.92547607 C117.39969692 1.85276184 139.52414558 5.09904558 160.39013672 25.35644531 C163.00363707 28.20796088 165.27147476 31.12269811 167.39013672 34.35644531 C168.04175781 35.34451172 168.04175781 35.34451172 168.70654297 36.35253906 C171.57795956 41.11422989 173.6007093 46.17700367 175.57763672 51.35644531 C175.95287476 52.3349646 175.95287476 52.3349646 176.33569336 53.33325195 C183.57955077 72.99375173 181.79506961 93.92723008 173.76513672 113.04394531 C170.23209979 120.23492451 165.55301954 126.2791334 160.39013672 132.35644531 C159.75333984 133.10796875 159.11654297 133.85949219 158.46044922 134.63378906 C151.87844466 141.76664808 143.0611275 147.11024468 134.39013672 151.35644531 C134.75550537 151.96190186 135.12087402 152.5673584 135.49731445 153.19116211 C144.80796606 168.63297225 153.9920175 184.14360576 163.08811951 199.7124939 C165.76365433 204.29022004 168.45019798 208.86138998 171.14013672 213.43066406 C172.3055706 215.41207345 173.47083848 217.39358036 174.63604736 219.37512207 C175.38047472 220.64023409 176.12553678 221.90497287 176.87127686 223.16931152 C177.90799816 224.92725841 178.9422781 226.68662083 179.97607422 228.44628906 C180.56437012 229.44523193 181.15266602 230.4441748 181.75878906 231.47338867 C186.39013672 239.65830104 186.39013672 239.65830104 186.39013672 242.35644531 C169.24494392 242.45528678 152.09448945 242.50186555 134.95263672 242.10644531 C133.74067627 242.09234619 132.52871582 242.07824707 131.2800293 242.0637207 C130.16265381 242.03141357 129.04527832 241.99910645 127.89404297 241.96582031 C126.92281494 241.94487305 125.95158691 241.92392578 124.95092773 241.90234375 C121.59706066 241.18738076 120.52503341 240.01213038 118.39013672 237.35644531 C117.2208043 235.49456082 116.11858862 233.58959439 115.06982422 231.65722656 C114.45751953 230.53952881 113.84521484 229.42183105 113.21435547 228.27026367 C112.73748291 227.38901321 112.73748291 227.38901321 112.25097656 226.48995972 C110.58013432 223.40362901 108.8860652 220.33006755 107.19482422 217.25488281 C106.86206482 216.64847458 106.52930542 216.04206635 106.1864624 215.4172821 C103.30663063 210.17822283 100.31348043 205.01695692 97.25024414 199.88378906 C94.6592035 195.53387462 92.12605359 191.15478501 89.62060547 186.75488281 C88.94686007 185.57457842 88.27303144 184.39432154 87.59912109 183.21411133 C86.27798288 180.9001766 84.96411325 178.58258834 83.65380859 176.26245117 C83.04472656 175.19647705 82.43564453 174.13050293 81.80810547 173.03222656 C81.26951904 172.08259033 80.73093262 171.1329541 80.17602539 170.15454102 C79.58668213 169.23116943 78.99733887 168.30779785 78.39013672 167.35644531 C77.70733643 166.2674292 77.02453613 165.17841309 76.32104492 164.05639648 C72.12125849 160.18755532 68.60453254 160.46582158 63.07763672 160.48144531 C62.14628906 160.46082031 61.21494141 160.44019531 60.25537109 160.41894531 C57.96606251 160.37198514 55.67982694 160.35199004 53.39013672 160.35644531 C53.38204987 161.29969666 53.37396301 162.242948 53.3656311 163.21478271 C53.28816062 172.1022078 53.20041902 180.98947997 53.10260963 189.87670517 C53.05265474 194.44576732 53.0063246 199.01480645 52.96826172 203.58398438 C52.93139876 207.99314355 52.88503601 212.40210967 52.83207321 216.81110382 C52.81353464 218.49357976 52.79842468 220.17609708 52.78679276 221.85863495 C52.76992105 224.21455165 52.74088415 226.57002677 52.70898438 228.92578125 C52.70682419 229.62205627 52.704664 230.3183313 52.70243835 231.03570557 C52.6405544 234.61107423 52.45570334 237.36935681 50.39013672 240.35644531 C47.85809713 241.62246511 46.08789558 241.49028653 43.25366211 241.50170898 C42.18237564 241.50808884 41.11108917 241.51446869 40.00733948 241.52104187 C38.26516396 241.52271111 38.26516396 241.52271111 36.48779297 241.52441406 C35.29915146 241.52774246 34.11050995 241.53107086 32.885849 241.53450012 C30.36815784 241.5395703 27.85045993 241.54190842 25.33276367 241.54174805 C21.4722186 241.54393422 17.6119593 241.56208844 13.75146484 241.58105469 C11.30940853 241.58398859 8.86735086 241.58597341 6.42529297 241.58691406 C5.26586685 241.59409958 4.10644073 241.6012851 2.91188049 241.60868835 C1.30022255 241.60407341 1.30022255 241.60407341 -0.34399414 241.59936523 C-1.76390907 241.60150276 -1.76390907 241.60150276 -3.21250916 241.60368347 C-5.60986328 241.35644531 -5.60986328 241.35644531 -8.60986328 239.35644531 C-9.50877344 236.65971483 -9.73640318 235.12146884 -9.74129105 232.35683441 C-9.74513219 231.54108019 -9.74897334 230.72532598 -9.75293088 229.88485193 C-9.7520644 228.98904586 -9.75119792 228.09323979 -9.75030518 227.17028809 C-9.7532763 226.21837381 -9.75624742 225.26645953 -9.75930858 224.28569937 C-9.76801056 221.08205901 -9.76950508 217.87845595 -9.77099609 214.67480469 C-9.77562309 212.38369161 -9.78064759 210.0925793 -9.78604126 207.8014679 C-9.79917601 201.56817212 -9.80561196 195.33488712 -9.81005192 189.10157967 C-9.81298005 185.21112548 -9.8170843 181.32067426 -9.82155609 177.43022156 C-9.83366462 166.66255018 -9.84404755 155.89488267 -9.84743118 145.1272049 C-9.84765075 144.43811152 -9.84787032 143.74901815 -9.84809653 143.03904316 C-9.84831481 142.34829096 -9.84853309 141.65753875 -9.84875798 140.94585466 C-9.84920145 139.54609712 -9.84964801 138.14633957 -9.85009766 136.74658203 C-9.85031909 136.05225223 -9.85054052 135.35792242 -9.85076866 134.64255232 C-9.85471959 123.38328406 -9.87218349 112.1240804 -9.89545718 100.86483711 C-9.91914888 89.31034549 -9.93137378 77.75589553 -9.9327991 66.20137835 C-9.93384976 59.71174425 -9.93981316 53.22220133 -9.95761871 46.73258972 C-9.97403012 40.63248591 -9.97628877 34.53254249 -9.96747971 28.43242455 C-9.96670568 26.188998 -9.97109974 23.94556308 -9.98093796 21.70215797 C-9.99354703 18.6487786 -9.98784114 15.59597688 -9.97735596 12.54260254 C-9.98541236 11.64679647 -9.99346877 10.7509904 -10.0017693 9.82803869 C-9.99188454 8.60440737 -9.99188454 8.60440737 -9.98180008 7.35605621 C-9.98239717 6.6510229 -9.98299426 5.94598958 -9.98360944 5.21959162 C-8.89833113 -0.19058379 -4.71035961 -0.01421065 0 0 Z " fill="#8C5ED2" transform="translate(486.60986328125,385.6435546875)"/>
<path d="M0 0 C1.73200905 -0.00956978 1.73200905 -0.00956978 3.49900818 -0.01933289 C4.75625198 -0.02044571 6.01349579 -0.02155853 7.30883789 -0.02270508 C8.5900502 -0.02603348 9.87126251 -0.02936188 11.19129944 -0.03279114 C13.90748944 -0.03878825 16.62364759 -0.04063045 19.33984375 -0.04003906 C22.82490006 -0.03993742 26.30975269 -0.05358849 29.7947607 -0.07081127 C33.11195647 -0.08458699 36.42911384 -0.08401957 39.74633789 -0.08520508 C41.00155746 -0.09239059 42.25677704 -0.09957611 43.55003357 -0.10697937 C45.28677086 -0.10236443 45.28677086 -0.10236443 47.05859375 -0.09765625 C48.59295326 -0.09979378 48.59295326 -0.09979378 50.15830994 -0.10197449 C52.59399414 0.14526367 52.59399414 0.14526367 54.59399414 2.14526367 C54.85570717 5.0984993 54.85570717 5.0984993 54.87246704 8.9697876 C54.88115564 10.03613516 54.88115564 10.03613516 54.89001977 11.12402511 C54.90710207 13.52079828 54.90990399 15.91737973 54.9128418 18.31420898 C54.92213876 20.02982558 54.93230709 21.74543764 54.94328308 23.46104431 C54.97073737 28.14827677 54.98579669 32.83547881 54.99871111 37.52277088 C55.01440279 42.47702709 55.0412117 47.43122351 55.06674194 52.38543701 C55.10837108 60.76222927 55.14278349 69.13902515 55.17211914 77.51586914 C55.21278169 89.12600522 55.26561464 100.73605933 55.32139254 112.34613132 C55.52303711 154.61243251 55.66682805 196.87843671 55.59399414 239.14526367 C52.47952874 240.1834188 50.31876997 240.27205952 47.05273438 240.2746582 C45.91823349 240.27781036 44.7837326 240.28096252 43.61485291 240.28421021 C41.77728172 240.28117386 41.77728172 240.28117386 39.90258789 240.27807617 C38.64640152 240.2790329 37.39021515 240.27998962 36.09596252 240.28097534 C33.4387773 240.28165631 30.78168385 240.28030846 28.12451172 240.27563477 C24.71579791 240.26993185 21.30716274 240.27322218 17.89845181 240.27920723 C14.64982765 240.28368491 11.40121307 240.28055225 8.15258789 240.27807617 C6.9255162 240.2801004 5.69844452 240.28212463 4.43418884 240.28421021 C3.30284012 240.28105804 2.17149139 240.27790588 1.00585938 240.2746582 C0.00675034 240.27386261 -0.9923587 240.27306702 -2.02174377 240.27224731 C-4.40600586 240.14526367 -4.40600586 240.14526367 -6.40600586 239.14526367 C-6.42879581 208.84249391 -6.44650382 178.53972504 -6.45707119 148.23694867 C-6.45832196 144.6631741 -6.45961628 141.08939955 -6.4609375 137.515625 C-6.46119981 136.80412099 -6.46146212 136.09261699 -6.46173238 135.35955226 C-6.46608916 123.82394199 -6.47397675 112.28833668 -6.48315866 100.75272936 C-6.49249497 88.92488505 -6.49806142 77.09704334 -6.50009435 65.2691955 C-6.50134591 58.62200056 -6.5044906 51.97481488 -6.51173592 45.32762337 C-6.51849196 39.07904966 -6.52062367 32.83049192 -6.51911354 26.5819149 C-6.51939006 24.28121479 -6.52139763 21.98051417 -6.52521133 19.6798172 C-6.5301421 16.55349762 -6.52900644 13.4272394 -6.52626038 10.30091858 C-6.52917322 9.37778573 -6.53208606 8.45465287 -6.53508717 7.5035463 C-6.517168 0.02430473 -6.517168 0.02430473 0 0 Z " fill="#8C5ED3" transform="translate(371.406005859375,386.854736328125)"/>
<path d="M0 0 C58.7046796 0 58.7046796 0 80.3125 19.5625 C86.2681384 25.80865735 89.73445804 33.10468006 93 41 C93.68449219 42.63195312 93.68449219 42.63195312 94.3828125 44.296875 C100.73180227 62.50027225 98.51000324 86.31409228 90.62084961 103.78540039 C86.55929777 112.0736078 81.39951519 120.66254543 73 125 C72.34 125 71.68 125 71 125 C71 125.66 71 126.32 71 127 C53.96097085 141.60488213 18.14560754 139 0 139 C0 93.13 0 47.26 0 0 Z " fill="#010418" transform="translate(773,437)"/>
<path d="M0 0 C1.00379196 -0.00306656 1.00379196 -0.00306656 2.02786255 -0.00619507 C4.25566473 -0.00921575 6.4827337 0.0093668 8.71044922 0.02832031 C10.28620217 0.0313864 11.86195786 0.03325605 13.43771362 0.03399658 C16.76522009 0.03861354 20.0924865 0.05305191 23.41992188 0.07519531 C27.57788813 0.10279463 31.73566258 0.11424818 35.89371109 0.11901093 C52.37429658 0.13969344 68.846232 0.31581281 85.31982422 0.80957031 C87.25439987 0.86694366 87.25439987 0.86694366 89.22805786 0.92547607 C117.33687995 1.85069419 139.60416849 5.0578722 160.39013672 25.35644531 C162.9130379 28.24214385 165.23726381 31.18585067 167.39013672 34.35644531 C167.06013672 35.01644531 166.73013672 35.67644531 166.39013672 36.35644531 C165.24738281 35.28716797 165.24738281 35.28716797 164.08154297 34.19628906 C160.88048047 31.2167624 157.64474007 28.27732267 154.39013672 25.35644531 C153.63990234 24.68226563 152.88966797 24.00808594 152.11669922 23.31347656 C139.44611342 12.70610876 121.33022425 6.58902887 104.97998047 6.04003906 C103.13871582 5.97683472 103.13871582 5.97683472 101.26025391 5.91235352 C99.96249023 5.87327881 98.66472656 5.8342041 97.32763672 5.79394531 C96.66284302 5.77343109 95.99804932 5.75291687 95.31311035 5.73178101 C86.75721167 5.47020938 78.19995995 5.23963514 69.64013672 5.16894531 C68.83954834 5.15597412 68.03895996 5.14300293 67.21411133 5.12963867 C63.05574502 5.12304158 59.31298024 5.52044099 55.24951172 6.43066406 C50.94936821 7.36662874 47.75534139 7.1337456 43.39013672 6.35644531 C30.67514344 5.66849369 17.62101977 5.37573633 5.39013672 9.35644531 C3.6235375 11.12304453 4.26501066 13.46786448 4.25639331 15.82124311 C4.25862404 16.61168018 4.26085476 17.40211725 4.26315308 18.21650696 C4.26159309 19.05010638 4.26003309 19.8837058 4.25842583 20.74256581 C4.25441185 23.55829386 4.25760714 26.37396874 4.26074219 29.18969727 C4.25938821 31.19990572 4.2576083 33.21011392 4.25543213 35.22032166 C4.25085417 40.70023839 4.25264968 46.1801364 4.25581121 51.66005349 C4.25833678 57.39333921 4.25599637 63.12662328 4.25442505 68.85990906 C4.25260231 78.50174244 4.25501069 88.14356817 4.25976562 97.78540039 C4.2651915 108.91587831 4.26345823 120.04633787 4.25793922 131.17681533 C4.25339077 140.73363346 4.25276652 150.29044608 4.25537789 159.84726495 C4.25693332 165.55414295 4.2571549 171.26101234 4.2538414 176.96788979 C4.25093814 182.34485156 4.25298328 187.7217899 4.25873566 193.09874916 C4.26005087 195.06586671 4.25969035 197.03298626 4.25747299 199.000103 C3.05222458 217.02891125 3.05222458 217.02891125 8.39013672 233.35644531 C19.73691526 237.99327392 33.40769504 236.67665583 45.39013672 236.35644531 C48.30321109 227.61722221 47.61736099 217.45156721 47.85498047 208.33300781 C47.91339395 206.34024097 47.97181825 204.34747438 48.03088474 202.35472679 C48.17429724 197.49139569 48.31113328 192.62790624 48.43969727 187.76416016 C48.51266135 185.01532208 48.59051851 182.26670513 48.67372131 179.51815796 C48.75147043 176.9418982 48.82193361 174.36540576 48.88426208 171.78872681 C48.92092484 170.62336395 48.95758759 169.4580011 48.99536133 168.25732422 C49.02343369 167.23571198 49.05150604 166.21409973 49.08042908 165.16152954 C49.40245492 162.24487693 50.17388872 160.01408009 51.39013672 157.35644531 C53.37013672 157.68644531 55.35013672 158.01644531 57.39013672 158.35644531 C55.41013672 159.34644531 55.41013672 159.34644531 53.39013672 160.35644531 C53.38204987 161.29969666 53.37396301 162.242948 53.3656311 163.21478271 C53.28816062 172.1022078 53.20041902 180.98947997 53.10260963 189.87670517 C53.05265474 194.44576732 53.0063246 199.01480645 52.96826172 203.58398438 C52.93139876 207.99314355 52.88503601 212.40210967 52.83207321 216.81110382 C52.81353464 218.49357976 52.79842468 220.17609708 52.78679276 221.85863495 C52.76992105 224.21455165 52.74088415 226.57002677 52.70898438 228.92578125 C52.70682419 229.62205627 52.704664 230.3183313 52.70243835 231.03570557 C52.6405544 234.61107423 52.45570334 237.36935681 50.39013672 240.35644531 C47.85809713 241.62246511 46.08789558 241.49028653 43.25366211 241.50170898 C42.18237564 241.50808884 41.11108917 241.51446869 40.00733948 241.52104187 C38.26516396 241.52271111 38.26516396 241.52271111 36.48779297 241.52441406 C35.29915146 241.52774246 34.11050995 241.53107086 32.885849 241.53450012 C30.36815784 241.5395703 27.85045993 241.54190842 25.33276367 241.54174805 C21.4722186 241.54393422 17.6119593 241.56208844 13.75146484 241.58105469 C11.30940853 241.58398859 8.86735086 241.58597341 6.42529297 241.58691406 C5.26586685 241.59409958 4.10644073 241.6012851 2.91188049 241.60868835 C1.30022255 241.60407341 1.30022255 241.60407341 -0.34399414 241.59936523 C-1.76390907 241.60150276 -1.76390907 241.60150276 -3.21250916 241.60368347 C-5.60986328 241.35644531 -5.60986328 241.35644531 -8.60986328 239.35644531 C-9.50877344 236.65971483 -9.73640318 235.12146884 -9.74129105 232.35683441 C-9.74513219 231.54108019 -9.74897334 230.72532598 -9.75293088 229.88485193 C-9.7520644 228.98904586 -9.75119792 228.09323979 -9.75030518 227.17028809 C-9.7532763 226.21837381 -9.75624742 225.26645953 -9.75930858 224.28569937 C-9.76801056 221.08205901 -9.76950508 217.87845595 -9.77099609 214.67480469 C-9.77562309 212.38369161 -9.78064759 210.0925793 -9.78604126 207.8014679 C-9.79917601 201.56817212 -9.80561196 195.33488712 -9.81005192 189.10157967 C-9.81298005 185.21112548 -9.8170843 181.32067426 -9.82155609 177.43022156 C-9.83366462 166.66255018 -9.84404755 155.89488267 -9.84743118 145.1272049 C-9.84765075 144.43811152 -9.84787032 143.74901815 -9.84809653 143.03904316 C-9.84831481 142.34829096 -9.84853309 141.65753875 -9.84875798 140.94585466 C-9.84920145 139.54609712 -9.84964801 138.14633957 -9.85009766 136.74658203 C-9.85031909 136.05225223 -9.85054052 135.35792242 -9.85076866 134.64255232 C-9.85471959 123.38328406 -9.87218349 112.1240804 -9.89545718 100.86483711 C-9.91914888 89.31034549 -9.93137378 77.75589553 -9.9327991 66.20137835 C-9.93384976 59.71174425 -9.93981316 53.22220133 -9.95761871 46.73258972 C-9.97403012 40.63248591 -9.97628877 34.53254249 -9.96747971 28.43242455 C-9.96670568 26.188998 -9.97109974 23.94556308 -9.98093796 21.70215797 C-9.99354703 18.6487786 -9.98784114 15.59597688 -9.97735596 12.54260254 C-9.98541236 11.64679647 -9.99346877 10.7509904 -10.0017693 9.82803869 C-9.99188454 8.60440737 -9.99188454 8.60440737 -9.98180008 7.35605621 C-9.98239717 6.6510229 -9.98299426 5.94598958 -9.98360944 5.21959162 C-8.89833113 -0.19058379 -4.71035961 -0.01421065 0 0 Z " fill="#9469DC" transform="translate(486.60986328125,385.6435546875)"/>
<path d="M0 0 C9.3740625 -0.061875 9.3740625 -0.061875 18.9375 -0.125 C20.89163818 -0.14320801 22.84577637 -0.16141602 24.85913086 -0.18017578 C26.43603238 -0.18602582 28.01293695 -0.19112016 29.58984375 -0.1953125 C30.78389832 -0.2106604 30.78389832 -0.2106604 32.0020752 -0.22631836 C42.68629666 -0.22958421 51.49807087 2.33359915 59.671875 9.45703125 C65.89624455 16.68828411 65.52166048 29.18535103 65.3046875 38.25 C64.59068921 44.69429226 62.069628 49.32304534 57.4375 53.8125 C43.86930963 64.56746925 22.53636424 64.06139555 6 63 C4.02 62.67 2.04 62.34 0 62 C0 41.54 0 21.08 0 0 Z " fill="#000418" transform="translate(539,437)"/>
<path d="M0 0 C0.33 0.99 0.66 1.98 1 3 C6.61 3 12.22 3 18 3 C16.68 3.33 15.36 3.66 14 4 C13.28462042 19.7507777 12.86121683 35.46318136 12.92469788 51.23010254 C12.93803371 54.54679825 12.94474617 57.86345797 12.95007324 61.18017578 C12.95822393 65.9042448 12.96886493 70.62829733 12.98168945 75.35235596 C13.01396557 87.58905177 13.02605433 99.82576535 13.03125 112.0625 C13.03207329 113.85339491 13.03207329 113.85339491 13.03291321 115.68046951 C13.03760603 134.3339521 12.90532907 152.97573574 12.5 171.625 C12.46548233 173.23734528 12.46548233 173.23734528 12.43026733 174.88226318 C12.34408153 178.88043598 12.25685355 182.87858275 12.16716003 186.87667847 C11.9728434 195.72820243 11.85681054 204.57919546 11.82275391 213.43280029 C11.81606985 214.94327767 11.80598187 216.45374499 11.79199219 217.96417236 C11.77448516 219.95001019 11.7715446 221.93596103 11.76953125 223.921875 C11.76336792 225.55527832 11.76336792 225.55527832 11.75708008 227.22167969 C12.00794149 230.09082825 12.23917023 231.71757781 14 234 C17.58540411 235.18466807 21.12033087 235.10509206 24.87109375 235.0625 C26.06250977 235.05412109 27.25392578 235.04574219 28.48144531 235.03710938 C29.78694336 235.02486328 31.09244141 235.01261719 32.4375 235 C48.4680276 234.90280486 64.48079721 235.24106751 80.50561523 235.64453125 C92.67350944 235.94461074 104.8284704 236.05955084 117 236 C110.15299008 240.56467328 101.41122861 240.29140257 93.42553711 240.24291992 C92.42106537 240.24481827 91.41659363 240.24671661 90.38168335 240.24867249 C87.09682141 240.25234579 83.81218566 240.24173087 80.52734375 240.23046875 C78.23474656 240.22927556 75.94214888 240.22882408 73.64955139 240.2290802 C68.86439926 240.22752165 64.07932261 240.21927556 59.29418945 240.20581055 C53.14697484 240.18873495 46.99984233 240.184999 40.85260677 240.18575573 C36.12847605 240.18548465 31.40436344 240.18001487 26.68023872 240.17275429 C24.41191304 240.16956431 22.1435853 240.16759945 19.87525749 240.16686058 C16.72010625 240.16470539 13.56504433 240.15598164 10.40991211 240.14526367 C9.46609177 240.14571686 8.52227142 240.14617004 7.54985046 240.14663696 C1.11448214 240.11448214 1.11448214 240.11448214 0 239 C-0.09803662 235.92810576 -0.12990812 232.87868011 -0.12025452 229.80638123 C-0.12110894 228.82955779 -0.12196337 227.85273435 -0.12284368 226.8463102 C-0.12450145 223.54652911 -0.11897228 220.24679795 -0.11352539 216.94702148 C-0.11324356 214.59222413 -0.11340118 212.23742669 -0.1139679 209.88262939 C-0.11425602 203.46759631 -0.10835691 197.05258174 -0.10139394 190.63755298 C-0.09531949 184.61936854 -0.09477212 178.60118191 -0.09374207 172.58299495 C-0.09155123 160.6595745 -0.0848903 148.73616088 -0.07543945 136.81274414 C-0.06626615 125.22745803 -0.05918492 113.64217377 -0.05493164 102.05688477 C-0.05466892 101.34325555 -0.05440619 100.62962633 -0.05413551 99.89437198 C-0.05283051 96.3144496 -0.05156679 92.7345272 -0.05032361 89.15460479 C-0.03995002 59.43639867 -0.02225673 29.71819966 0 0 Z " fill="#956ADB" transform="translate(712,387)"/>
<path d="M0 0 C1.73200905 -0.00956978 1.73200905 -0.00956978 3.49900818 -0.01933289 C4.75625198 -0.02044571 6.01349579 -0.02155853 7.30883789 -0.02270508 C8.5900502 -0.02603348 9.87126251 -0.02936188 11.19129944 -0.03279114 C13.90748944 -0.03878825 16.62364759 -0.04063045 19.33984375 -0.04003906 C22.82490006 -0.03993742 26.30975269 -0.05358849 29.7947607 -0.07081127 C33.11195647 -0.08458699 36.42911384 -0.08401957 39.74633789 -0.08520508 C41.00155746 -0.09239059 42.25677704 -0.09957611 43.55003357 -0.10697937 C45.28677086 -0.10236443 45.28677086 -0.10236443 47.05859375 -0.09765625 C48.59295326 -0.09979378 48.59295326 -0.09979378 50.15830994 -0.10197449 C52.59399414 0.14526367 52.59399414 0.14526367 54.59399414 2.14526367 C54.85570717 5.0984993 54.85570717 5.0984993 54.87246704 8.9697876 C54.88115564 10.03613516 54.88115564 10.03613516 54.89001977 11.12402511 C54.90710207 13.52079828 54.90990399 15.91737973 54.9128418 18.31420898 C54.92213876 20.02982558 54.93230709 21.74543764 54.94328308 23.46104431 C54.97073737 28.14827677 54.98579669 32.83547881 54.99871111 37.52277088 C55.01440279 42.47702709 55.0412117 47.43122351 55.06674194 52.38543701 C55.10837108 60.76222927 55.14278349 69.13902515 55.17211914 77.51586914 C55.21278169 89.12600522 55.26561464 100.73605933 55.32139254 112.34613132 C55.52303711 154.61243251 55.66682805 196.87843671 55.59399414 239.14526367 C52.47952874 240.1834188 50.31876997 240.27205952 47.05273438 240.2746582 C45.91823349 240.27781036 44.7837326 240.28096252 43.61485291 240.28421021 C41.77728172 240.28117386 41.77728172 240.28117386 39.90258789 240.27807617 C38.64640152 240.2790329 37.39021515 240.27998962 36.09596252 240.28097534 C33.4387773 240.28165631 30.78168385 240.28030846 28.12451172 240.27563477 C24.71579791 240.26993185 21.30716274 240.27322218 17.89845181 240.27920723 C14.64982765 240.28368491 11.40121307 240.28055225 8.15258789 240.27807617 C6.9255162 240.2801004 5.69844452 240.28212463 4.43418884 240.28421021 C3.30284012 240.28105804 2.17149139 240.27790588 1.00585938 240.2746582 C0.00675034 240.27386261 -0.9923587 240.27306702 -2.02174377 240.27224731 C-4.40600586 240.14526367 -4.40600586 240.14526367 -6.40600586 239.14526367 C-6.42879581 208.84249391 -6.44650382 178.53972504 -6.45707119 148.23694867 C-6.45832196 144.6631741 -6.45961628 141.08939955 -6.4609375 137.515625 C-6.46119981 136.80412099 -6.46146212 136.09261699 -6.46173238 135.35955226 C-6.46608916 123.82394199 -6.47397675 112.28833668 -6.48315866 100.75272936 C-6.49249497 88.92488505 -6.49806142 77.09704334 -6.50009435 65.2691955 C-6.50134591 58.62200056 -6.5044906 51.97481488 -6.51173592 45.32762337 C-6.51849196 39.07904966 -6.52062367 32.83049192 -6.51911354 26.5819149 C-6.51939006 24.28121479 -6.52139763 21.98051417 -6.52521133 19.6798172 C-6.5301421 16.55349762 -6.52900644 13.4272394 -6.52626038 10.30091858 C-6.52917322 9.37778573 -6.53208606 8.45465287 -6.53508717 7.5035463 C-6.517168 0.02430473 -6.517168 0.02430473 0 0 Z M-3.40600586 5.14526367 C-3.80361092 8.27254548 -3.94136532 11.04955138 -3.9072113 14.17956543 C-3.9127457 15.1151455 -3.9182801 16.05072556 -3.9239822 17.01465654 C-3.93764272 20.16327666 -3.92259006 23.3111115 -3.90771484 26.4597168 C-3.91149605 28.71142413 -3.91699444 30.96312915 -3.92408752 33.21482849 C-3.93808521 39.34078829 -3.926842 45.46646858 -3.91037631 51.59241295 C-3.89655886 57.99321099 -3.90298211 64.39399225 -3.9065094 70.7947998 C-3.90921414 81.54530435 -3.89580045 92.29567076 -3.87255859 103.04614258 C-3.84863693 114.1122654 -3.84155394 125.17824073 -3.85205078 136.24438477 C-3.86467027 149.57221257 -3.8621755 162.89993592 -3.84639168 176.22776794 C-3.84062229 181.32182915 -3.84072204 186.415841 -3.84545708 191.50990295 C-3.85021769 197.50498006 -3.84016313 203.49985213 -3.81850243 209.49489021 C-3.81292189 211.69960399 -3.81248079 213.90433743 -3.81745529 216.10905266 C-3.82337866 219.10991919 -3.81095966 222.11015258 -3.79368591 225.11096191 C-3.79969596 225.99120419 -3.805706 226.87144647 -3.81189817 227.77836275 C-3.90865249 232.12578617 -3.90865249 232.12578617 -2.02257973 235.86794615 C0.20168042 237.6254201 1.67785708 237.51960167 4.49267578 237.51757812 C5.4870314 237.52380692 6.48138702 237.53003571 7.50587463 237.53645325 C8.57780563 237.5272435 9.64973663 237.51803375 10.75415039 237.50854492 C12.40537148 237.50929268 12.40537148 237.50929268 14.08995056 237.51005554 C16.41757004 237.50771424 18.745192 237.49798245 21.07275391 237.48144531 C24.64581806 237.45783422 28.21813735 237.46088643 31.79125977 237.4675293 C34.04972778 237.46195338 36.30819264 237.45484404 38.56665039 237.44604492 C39.64060562 237.44695633 40.71456085 237.44786774 41.82106018 237.44880676 C42.81226364 237.43927475 43.8034671 237.42974274 44.82470703 237.41992188 C46.13683922 237.41301079 46.13683922 237.41301079 47.47547913 237.40596008 C49.81031686 237.33924134 49.81031686 237.33924134 51.59399414 235.14526367 C51.79428792 232.11646695 51.86753473 229.17876241 51.85469055 226.14855957 C51.8585161 225.20496126 51.86234165 224.26136294 51.86628312 223.28917074 C51.87665314 220.10768252 51.87261342 216.92637342 51.86865234 213.74487305 C51.87299657 211.47198824 51.87817875 209.1991049 51.88414001 206.92622375 C51.89757155 200.73837231 51.89810414 194.55058178 51.89557672 188.36271858 C51.89450993 183.20574558 51.89938278 178.04878505 51.90418214 172.89181471 C51.91592741 160.03519106 51.91504401 147.17861135 51.90862533 134.32198709 C51.90345425 123.14603961 51.91471497 111.97017924 51.93372355 100.794249 C51.95307522 89.32905758 51.96107086 77.8639235 51.9576003 66.39871264 C51.95578212 59.957728 51.95847671 53.51682316 51.97231483 47.07585144 C51.98483434 41.02171686 51.98300509 34.96775742 51.96990395 28.91362572 C51.96752583 26.68590932 51.97031661 24.45818082 51.97852707 22.23047829 C51.98889217 19.20076764 51.98097689 16.17165597 51.96821594 13.14196777 C51.97927737 11.80453907 51.97927737 11.80453907 51.99056226 10.44009161 C52.00249768 7.75490432 52.00249768 7.75490432 51.59399414 4.14526367 C48.40241491 2.01754418 47.57510195 1.89084987 43.91064453 1.87060547 C42.9627858 1.86107346 42.01492706 1.85154144 41.03834534 1.84172058 C40.016436 1.84263199 38.99452667 1.8435434 37.94165039 1.84448242 C36.88997177 1.8401973 35.83829315 1.83591217 34.75474548 1.83149719 C32.52970093 1.82575199 30.30463759 1.82525502 28.07958984 1.82958984 C24.67325825 1.83274813 21.26779633 1.80929816 17.86157227 1.78393555 C15.70076607 1.78166244 13.53995754 1.78095911 11.37915039 1.78198242 C10.35926529 1.77277267 9.33938019 1.76356293 8.28858948 1.7540741 C6.86207314 1.76341728 6.86207314 1.76341728 5.40673828 1.77294922 C4.15456261 1.77200508 4.15456261 1.77200508 2.87709045 1.77104187 C-0.1866293 2.27321548 -1.27496227 2.84200725 -3.40600586 5.14526367 Z " fill="#A274E2" transform="translate(371.406005859375,386.854736328125)"/>
<path d="M0 0 C3.34960297 3.34960297 3.12607273 6.44594464 3.12939453 10.96508789 C3.13254669 12.19389175 3.13569885 13.42269562 3.13894653 14.68873596 C3.13715524 16.03337642 3.13510391 17.37801655 3.1328125 18.72265625 C3.13348663 20.10688799 3.13445757 21.49111962 3.13571167 22.87535095 C3.13718692 25.78141402 3.13504191 28.68744637 3.13037109 31.59350586 C3.12471114 35.29289011 3.12793 38.9922012 3.13394356 42.69158268 C3.13758578 45.55458612 3.13639327 48.41757271 3.13381577 51.28057671 C3.13283566 53.29993106 3.13584284 55.3192861 3.13894653 57.33863831 C3.12331655 63.54107083 2.93056556 69.60406121 2.22238159 75.76560974 C1.86803909 79.32588389 1.89520476 82.86334648 1.9375 86.4375 C1.94317993 87.58412109 1.94317993 87.58412109 1.94897461 88.75390625 C1.96498476 91.96377774 1.99288824 95.17351133 2.02050781 98.38330078 C2.08934405 107.17803598 2.06520688 115.96171652 1.6875 124.75 C1.66502197 125.47638672 1.64254395 126.20277344 1.61938477 126.95117188 C1.36105713 131.97948128 0.17348138 135.54815075 -2 140 C-2.33 140 -2.66 140 -3 140 C-3.76410098 131.43933796 -4.14536218 122.96553598 -4.12939453 114.37255859 C-4.13114685 113.18554352 -4.13289917 111.99852844 -4.13470459 110.77554321 C-4.13906285 106.89982591 -4.13620844 103.02415516 -4.1328125 99.1484375 C-4.13303577 96.43893396 -4.13445653 93.72943121 -4.13571167 91.01992798 C-4.13752113 85.36663313 -4.13515675 79.71335144 -4.13037109 74.06005859 C-4.12490441 67.52684021 -4.12671339 60.99365293 -4.1321975 54.46043527 C-4.13673223 48.83214469 -4.1373782 43.20386347 -4.13475883 37.57557166 C-4.13320143 34.22162402 -4.13298815 30.86769104 -4.13629532 27.51374435 C-4.13882457 23.7869732 -4.13497857 20.06026271 -4.12939453 16.33349609 C-4.13141876 15.22391541 -4.13344299 14.11433472 -4.13552856 12.97113037 C-4.13270874 11.95926666 -4.12988892 10.94740295 -4.12698364 9.90487671 C-4.12660662 9.02485678 -4.12622959 8.14483685 -4.12584114 7.23814964 C-4 5 -4 5 -3 2 C-2.01 1.34 -1.02 0.68 0 0 Z " fill="#996EDF" transform="translate(254,389)"/>
<path d="M0 0 C8.25 0 16.5 0 25 0 C25 0.33 25 0.66 25 1 C23.73542969 1.04898437 22.47085937 1.09796875 21.16796875 1.1484375 C19.50779053 1.2234738 17.84763536 1.29902127 16.1875 1.375 C15.35412109 1.4059375 14.52074219 1.436875 13.66210938 1.46875 C12.85966797 1.50742187 12.05722656 1.54609375 11.23046875 1.5859375 C10.49207764 1.6173584 9.75368652 1.6487793 8.99291992 1.68115234 C6.68650412 1.90834614 6.68650412 1.90834614 4 4 C3.70593824 7.0698855 3.60917232 9.93793072 3.63923645 13.01016235 C3.63667318 13.9551718 3.6341099 14.90018124 3.63146895 15.87382734 C3.62650308 19.06009805 3.64307017 22.2459014 3.65942383 25.43212891 C3.66026949 27.70825693 3.65979614 29.98438576 3.65809631 32.26051331 C3.65723258 38.45654933 3.67491951 44.65241251 3.69581819 50.84840822 C3.71452206 57.31733616 3.71633045 63.7862677 3.71989441 70.25521851 C3.72817113 81.11842207 3.74693299 91.98155445 3.77368164 102.84472656 C3.8012075 114.035153 3.82244827 125.22556218 3.83520508 136.41601562 C3.83599325 137.10548616 3.83678142 137.79495669 3.83759347 138.50532027 C3.84150851 141.96409935 3.84529965 145.42287855 3.84902918 148.88165784 C3.88014283 177.58781493 3.93321668 206.29390498 4 235 C6.83962421 235.9465414 8.70406529 236.14994224 11.6550293 236.20532227 C12.59577805 236.22526749 13.53652679 236.24521271 14.50578308 236.26576233 C15.51836685 236.28247482 16.53095062 236.29918732 17.57421875 236.31640625 C19.13267265 236.3475779 19.13267265 236.3475779 20.72261047 236.37937927 C24.04417253 236.44480656 27.36581416 236.50372821 30.6875 236.5625 C32.9381593 236.60569169 35.18881052 236.64930619 37.43945312 236.69335938 C42.9595511 236.80048098 48.47972837 236.90226016 54 237 C54 237.33 54 237.66 54 238 C36.18 238 18.36 238 0 238 C0 159.46 0 80.92 0 0 Z " fill="#9D76D4" transform="translate(365,388)"/>
<path d="M0 0 C11.47213729 0.21244699 18.87185995 8.43106172 26.50976562 16.15356445 C34.99280216 24.98750878 38.30705892 33.05555285 38.3359375 45.26171875 C38.3425943 46.24815872 38.3492511 47.23459869 38.35610962 48.25093079 C38.36621052 50.33450464 38.37092743 52.41811067 38.37060547 54.50170898 C38.37496193 57.65989778 38.41126333 60.81666901 38.44921875 63.97460938 C38.53236389 78.67832844 36.92533541 88.98054832 28 101 C27.22849609 102.11568359 27.22849609 102.11568359 26.44140625 103.25390625 C25.96574219 103.83011719 25.49007812 104.40632812 25 105 C24.34 105 23.68 105 23 105 C22.67 105.66 22.34 106.32 22 107 C22.58404122 103.367392 23.6057708 100.61937068 25.3125 97.375 C33.38596918 79.74949024 35.81638547 55.74278353 29.3828125 37.296875 C28.92648437 36.20890625 28.47015625 35.1209375 28 34 C27.73155273 33.35095703 27.46310547 32.70191406 27.18652344 32.03320312 C21.59548781 18.845046 13.90712026 10.17004017 1.8359375 2.27734375 C1.23007812 1.85582031 0.62421875 1.43429687 0 1 C0 0.67 0 0.34 0 0 Z " fill="#A371E7" transform="translate(837,444)"/>
<path d="M0 0 C13.15956405 11.80320548 16.67249444 34.2446537 18 51 C19.1704809 76.36406583 17.39668017 99.50705453 5 122 C3.73639904 119.47279808 4.14385855 118.6527576 4.80444336 115.94360352 C5.10486794 114.68441856 5.10486794 114.68441856 5.41136169 113.39979553 C5.63526077 112.48540207 5.85915985 111.57100861 6.08984375 110.62890625 C6.54966123 108.67141947 7.00861525 106.7137297 7.46679688 104.75585938 C8.19277596 101.68470812 8.92458787 98.61542215 9.67260742 95.54956055 C14.68551195 74.90450923 15.14487903 58.00434688 10.42944336 37.28149414 C9.80843457 34.54458281 9.22156039 31.80189682 8.63867188 29.05664062 C6.74821442 20.36269072 4.68711719 12.19256606 0.92456055 4.09741211 C0 2 0 2 0 0 Z " fill="#A476E5" transform="translate(914,442)"/>
<path d="M0 0 C0.66 0 1.32 0 2 0 C2 45.21 2 90.42 2 137 C-0.40468113 133.39297831 -0.32918871 130.68880376 -0.37890625 126.515625 C-0.39590073 125.78180603 -0.4128952 125.04798706 -0.43040466 124.29193115 C-0.48349579 121.94470853 -0.52376 119.5974998 -0.5625 117.25 C-0.60666231 114.91687872 -0.65365042 112.58388316 -0.70530701 110.25091553 C-0.73683743 108.80069432 -0.76385262 107.35036521 -0.78553772 105.89996338 C-0.84765151 102.81268317 -1.02391809 99.84719599 -1.50177002 96.79437256 C-2.04850337 92.63061264 -2.1477373 88.61385596 -2.14526367 84.421875 C-2.14862228 83.59328979 -2.1519809 82.76470459 -2.15544128 81.91101074 C-2.16488739 79.1906583 -2.16689094 76.47036779 -2.16796875 73.75 C-2.17118485 71.84863256 -2.17454919 69.94726537 -2.17805481 68.04589844 C-2.18402957 64.06835354 -2.18589632 60.09083032 -2.18530273 56.11328125 C-2.185201 51.02588253 -2.19887204 45.93862303 -2.21607494 40.85125732 C-2.22721016 36.92723964 -2.2292215 33.0032555 -2.22869301 29.07922363 C-2.2298701 27.20381184 -2.23427662 25.32839909 -2.24202538 23.45300293 C-2.25185958 20.82794499 -2.24893412 18.20318813 -2.24291992 15.578125 C-2.24853943 14.81012573 -2.25415894 14.04212646 -2.25994873 13.25085449 C-2.23223409 8.47289022 -1.50825861 4.5391945 0 0 Z " fill="#9A75D4" transform="translate(771,438)"/>
<path d="M0 0 C0.99 0.33 1.98 0.66 3 1 C9.35112095 19.58448815 4.5253838 40.68090036 -3.828125 57.71875 C-4.21484375 58.4715625 -4.6015625 59.224375 -5 60 C-6.57119596 57.15503613 -7.39860257 54.72288133 -7.8125 51.5 C-7.92207031 50.7471875 -8.03164063 49.994375 -8.14453125 49.21875 C-8 47 -8 47 -6.57763672 45.26733398 C-4.5623825 42.37106876 -4.19698301 39.97772051 -3.61328125 36.50390625 C-3.39736328 35.22193359 -3.18144531 33.93996094 -2.95898438 32.61914062 C-2.79982544 31.61717651 -2.79982544 31.61717651 -2.63745117 30.5949707 C-2.31807146 28.59734777 -1.97598471 26.60464339 -1.63085938 24.61132812 C-0.27392912 16.33364112 0.29677309 8.38361695 0 0 Z " fill="#966DDC" transform="translate(662,445)"/>
<path d="M0 0 C54.53380731 -0.67191688 54.53380731 -0.67191688 64.38671875 8.1328125 C64.91910156 8.74898438 65.45148438 9.36515625 66 10 C65.23816406 9.79503906 64.47632813 9.59007812 63.69140625 9.37890625 C57.42782029 7.74458732 51.4378925 6.61313262 45 6 C44.01 5.67 43.02 5.34 42 5 C39.4849074 4.9328189 36.98763267 5.00180675 34.47265625 5.0625 C32 5 32 5 30.10546875 4.5 C27.12901864 3.79316213 24.30391048 3.94665659 21.25 4 C16.04323599 4.04348028 11.13628531 3.82180565 6 3 C6 2.67 6 2.34 6 2 C3.03 1.505 3.03 1.505 0 1 C0 0.67 0 0.34 0 0 Z " fill="#14131E" transform="translate(773,437)"/>
<path d="M0 0 C2.18284504 2.65737657 3.27633685 4.65569263 4 8 C-17.03004153 8.12054257 -37.98699294 7.95733559 -59 7 C-59 6.34 -59 5.68 -59 5 C-57.97975739 4.99453156 -57.97975739 4.99453156 -56.93890381 4.98895264 C-49.86598419 4.94717442 -42.79371632 4.87786129 -35.72119141 4.79248047 C-33.0809582 4.76423747 -30.44063992 4.74303962 -27.80029297 4.72900391 C-24.0070428 4.70762144 -20.21481921 4.66099209 -16.421875 4.609375 C-15.23946228 4.60814636 -14.05704956 4.60691772 -12.83880615 4.60565186 C-11.1875473 4.57607391 -11.1875473 4.57607391 -9.50292969 4.54589844 C-8.53474304 4.53701599 -7.5665564 4.52813354 -6.56903076 4.51898193 C-3.31774662 3.8621748 -2.10217194 2.49544304 0 0 Z " fill="#A27BDA" transform="translate(669,620)"/>
<path d="M0 0 C-12.3694486 8.24629907 -27.38268787 8.15019399 -41.75 8.25 C-42.69069336 8.2593457 -43.63138672 8.26869141 -44.60058594 8.27832031 C-49.15853306 8.2568595 -52.87230641 8.18524955 -57 6 C-57 5.67 -57 5.34 -57 5 C-56.27224365 4.9906543 -55.5444873 4.98130859 -54.79467773 4.97167969 C-39.77038456 4.73115895 -25.37658113 3.79646371 -10.6328125 0.83984375 C-7.0337431 0.1282654 -3.68347017 -0.18842834 0 0 Z " fill="#A174DE" transform="translate(831,571)"/>
<path d="M0 0 C0.84151108 -0.00095673 1.68302216 -0.00191345 2.55003357 -0.00289917 C4.31908239 -0.00357616 6.08813376 -0.00175561 7.85717773 0.00244141 C10.55393073 0.00780323 13.2505177 0.00247659 15.94726562 -0.00390625 C17.67317745 -0.00324551 19.39908917 -0.00196445 21.125 0 C21.9251503 -0.00202423 22.7253006 -0.00404846 23.54969788 -0.00613403 C27.82295816 0.01164199 31.7778805 0.37827817 35.99609375 1.1328125 C37.79427932 1.20840067 39.59478882 1.24105547 41.39453125 1.23046875 C42.36777344 1.22724609 43.34101562 1.22402344 44.34375 1.22070312 C45.34277344 1.21232422 46.34179688 1.20394531 47.37109375 1.1953125 C48.39332031 1.19080078 49.41554688 1.18628906 50.46875 1.18164062 C52.97792569 1.1699155 55.48697865 1.15350426 57.99609375 1.1328125 C56.67609375 1.4628125 55.35609375 1.7928125 53.99609375 2.1328125 C53.99609375 2.7928125 53.99609375 3.4528125 53.99609375 4.1328125 C30.89609375 3.4728125 7.79609375 2.8128125 -16.00390625 2.1328125 C-16.00390625 1.8028125 -16.00390625 1.4728125 -16.00390625 1.1328125 C-10.62433725 0.23226791 -5.44893716 -0.01381976 0 0 Z " fill="#10101D" transform="translate(760.00390625,383.8671875)"/>
<path d="M0 0 C5.90819071 -0.04945048 11.81626084 -0.08574364 17.72460938 -0.10986328 C19.73439635 -0.1199187 21.7441687 -0.13356485 23.75390625 -0.15087891 C26.64326588 -0.17514724 29.53243202 -0.18648771 32.421875 -0.1953125 C33.31992859 -0.20563507 34.21798218 -0.21595764 35.14324951 -0.22659302 C35.98381897 -0.22674408 36.82438843 -0.22689514 37.69042969 -0.22705078 C38.42767273 -0.231492 39.16491577 -0.23593323 39.92449951 -0.24050903 C42.30519726 0.03536626 43.93016431 0.82098568 46 2 C46 2.33 46 2.66 46 3 C44.91058105 3.02505615 43.82116211 3.0501123 42.69873047 3.07592773 C38.63953802 3.17041915 34.58050012 3.27053637 30.52148438 3.37231445 C28.76794054 3.41550598 27.01435892 3.45719155 25.26074219 3.49731445 C22.73360835 3.55540124 20.20666196 3.61898299 17.6796875 3.68359375 C16.90132538 3.70030624 16.12296326 3.71701874 15.3210144 3.73423767 C11.97628594 3.82434983 8.88136749 4.02084313 5.57470703 4.60180664 C3 5 3 5 1.125 3.6875 C0 2 0 2 0 0 Z " fill="#AA89E1" transform="translate(88,624)"/>
<path d="M0 0 C4.47915271 -0.0292814 8.95828042 -0.04689296 13.4375 -0.0625 C15.32758789 -0.07506836 15.32758789 -0.07506836 17.25585938 -0.08789062 C23.9289203 -0.10531376 30.38768168 0.08621934 37 1 C37 1.99 37 2.98 37 4 C24.29167137 4.12807946 11.68404881 3.79541627 -1 3 C-0.67 2.01 -0.34 1.02 0 0 Z " fill="#A475E4" transform="translate(784,387)"/>
<path d="M0 0 C2.97 0.495 2.97 0.495 6 1 C4.02 1.99 4.02 1.99 2 3 C1.67 15.87 1.34 28.74 1 42 C0.67 42 0.34 42 0 42 C-0.33 40.02 -0.66 38.04 -1 36 C-1.33 36 -1.66 36 -2 36 C-2.0496011 31.67669221 -2.0858144 27.35353715 -2.10986328 23.0300293 C-2.11989352 21.56059888 -2.13352101 20.09118829 -2.15087891 18.62182617 C-2.17525898 16.50434463 -2.18651286 14.38712801 -2.1953125 12.26953125 C-2.20578613 10.99698486 -2.21625977 9.72443848 -2.22705078 8.41333008 C-2.00942228 5.14164829 -1.41502625 2.93042634 0 0 Z " fill="#9D78DA" transform="translate(538,543)"/>
<path d="M0 0 C0.66 0.33 1.32 0.66 2 1 C-8.7873632 8.87500812 -25.27547633 16.85778273 -39 16 C-36.45749855 13.45749855 -34.11355436 12.76434254 -30.7421875 11.50390625 C-30.12030548 11.26969467 -29.49842346 11.03548309 -28.85769653 10.79417419 C-26.86533956 10.04516699 -24.87025794 9.30374025 -22.875 8.5625 C-21.55450062 8.06755559 -20.23418595 7.5721181 -18.9140625 7.07617188 C-16.39097418 6.12871726 -13.86575435 5.18786048 -11.33886719 4.25048828 C-9.33794693 3.50109419 -7.3418644 2.73827744 -5.35644531 1.94873047 C-3.59080137 1.24702064 -1.79825168 0.61334012 0 0 Z " fill="#A575E7" transform="translate(876,606)"/>
<path d="M0 0 C-1.51646821 0.65601744 -3.03846175 1.2992664 -4.5625 1.9375 C-5.40941406 2.29714844 -6.25632812 2.65679687 -7.12890625 3.02734375 C-14.5739024 5.54952612 -22.46675443 5.21807198 -30.2355957 5.24023438 C-32.32476928 5.25005769 -34.41300471 5.28120123 -36.50195312 5.3125 C-37.81744141 5.31765625 -39.13292969 5.3228125 -40.48828125 5.328125 C-41.69009033 5.3374707 -42.89189941 5.34681641 -44.13012695 5.35644531 C-45.07718506 5.23881836 -46.02424316 5.12119141 -47 5 C-47.66 4.01 -48.32 3.02 -49 2 C-48.29617188 2.01047363 -47.59234375 2.02094727 -46.8671875 2.03173828 C-25.6428486 2.69936916 -25.6428486 2.69936916 -4.7734375 -0.62890625 C-3 -1 -3 -1 0 0 Z " fill="#A67BE2" transform="translate(588,497)"/>
<path d="M0 0 C1.46533651 0.000474 2.93072747 0.01736575 4.39575195 0.04760742 C5.16836868 0.05185226 5.94098541 0.05609711 6.73701477 0.06047058 C9.20304313 0.07725434 11.66825216 0.1149047 14.1340332 0.15307617 C15.80654744 0.16812346 17.47907449 0.18181179 19.15161133 0.1940918 C23.25023398 0.22715671 27.34824471 0.27893589 31.4465332 0.34057617 C31.4465332 1.00057617 31.4465332 1.66057617 31.4465332 2.34057617 C12.6365332 2.83557617 12.6365332 2.83557617 -6.5534668 3.34057617 C-3.5534668 0.34057617 -3.5534668 0.34057617 0 0 Z " fill="#AB7CEC" transform="translate(545.553466796875,433.659423828125)"/>
<path d="M0 0 C6.93 0 13.86 0 21 0 C20.01 0.33 19.02 0.66 18 1 C18 1.66 18 2.32 18 3 C11.73 3 5.46 3 -1 3 C-0.67 2.01 -0.34 1.02 0 0 Z " fill="#AD7CEF" transform="translate(784,387)"/>
<path d="M0 0 C1.44096586 0.42594588 2.87768712 0.86626633 4.3125 1.3125 C5.11300781 1.55613281 5.91351562 1.79976563 6.73828125 2.05078125 C9.1229488 3.05160028 10.24964243 4.14396047 12 6 C11.39373779 5.86287598 10.78747559 5.72575195 10.1628418 5.58447266 C1.72599264 3.84877683 -6.61392932 3.5651936 -15.1875 3.375 C-16.63088016 3.33671319 -18.07424009 3.29765575 -19.51757812 3.2578125 C-23.01153097 3.16300967 -26.50563989 3.07856801 -30 3 C-30 2.67 -30 2.34 -30 2 C-20.1 2 -10.2 2 0 2 C0 1.34 0 0.68 0 0 Z " fill="#9777C9" transform="translate(577,434)"/>
<path d="M0 0 C1.25361328 0.00644531 2.50722656 0.01289063 3.79882812 0.01953125 C5.76432617 0.04466797 5.76432617 0.04466797 7.76953125 0.0703125 C9.10481112 0.08034611 10.44009814 0.0894713 11.77539062 0.09765625 C15.0444514 0.12125958 18.31315153 0.15418656 21.58203125 0.1953125 C20.26203125 0.5253125 18.94203125 0.8553125 17.58203125 1.1953125 C17.58203125 1.8553125 17.58203125 2.5153125 17.58203125 3.1953125 C8.67203125 2.8653125 -0.23796875 2.5353125 -9.41796875 2.1953125 C-5.83128562 -0.19580959 -4.25400306 -0.03849777 0 0 Z " fill="#1C1B26" transform="translate(796.41796875,384.8046875)"/>
<path d="M0 0 C13.53 0 27.06 0 41 0 C41 0.33 41 0.66 41 1 C25.16 1.495 25.16 1.495 9 2 C9 2.33 9 2.66 9 3 C7.02 3.33 5.04 3.66 3 4 C2.01 2.68 1.02 1.36 0 0 Z " fill="#8F69D0" transform="translate(88,625)"/>
<path d="M0 0 C7.92 0.33 15.84 0.66 24 1 C24 1.66 24 2.32 24 3 C20.93726169 3.05410136 17.87548548 3.09372225 14.8125 3.125 C13.51602539 3.15013672 13.51602539 3.15013672 12.19335938 3.17578125 C7.67791897 3.21038233 4.09918517 3.15567916 0 1 C0 0.67 0 0.34 0 0 Z " fill="#AF83ED" transform="translate(774,576)"/>
<path d="M0 0 C1.98 0.99 1.98 0.99 4 2 C3.67 7.94 3.34 13.88 3 20 C2.67 20 2.34 20 2 20 C1.67 17.03 1.34 14.06 1 11 C0.67 11 0.34 11 0 11 C0 7.37 0 3.74 0 0 Z " fill="#11101D" transform="translate(148,489)"/>
<path d="M0 0 C1.06992187 0.09990234 2.13984375 0.19980469 3.2421875 0.30273438 C4.90894531 0.48352539 4.90894531 0.48352539 6.609375 0.66796875 C7.73601563 0.77689453 8.86265625 0.88582031 10.0234375 0.99804688 C12.80391028 1.26902515 15.5819217 1.55534914 18.359375 1.85546875 C18.359375 2.18546875 18.359375 2.51546875 18.359375 2.85546875 C9.119375 2.85546875 -0.120625 2.85546875 -9.640625 2.85546875 C-5.33291712 -0.37531216 -4.96253487 -0.50153278 0 0 Z " fill="#AB7AEE" transform="translate(790.640625,434.14453125)"/>
<path d="M0 0 C0 4.29 0 8.58 0 13 C-2.5 10.75 -2.5 10.75 -5 8 C-5 4 -5 4 -3.0625 1.75 C-1 0 -1 0 0 0 Z " fill="#0E0D17" transform="translate(251,516)"/>
<path d="M0 0 C3.10832536 1.55416268 3.44625555 4.07753567 4.6875 7.25 C5.14511719 8.38953125 5.60273437 9.5290625 6.07421875 10.703125 C7.01303692 14.04642684 7.01371854 15.73152568 6 19 C2.2799807 15.2799807 1.65401497 10.75109729 0.875 5.6875 C0.70742188 4.61886719 0.53984375 3.55023438 0.3671875 2.44921875 C0.24601563 1.64097656 0.12484375 0.83273437 0 0 Z " fill="#9A76D8" transform="translate(656,425)"/>
<path d="M0 0 C3.33331439 -0.02937438 6.66659483 -0.04692334 10 -0.0625 C10.93457031 -0.07087891 11.86914062 -0.07925781 12.83203125 -0.08789062 C18.32274401 -0.10708892 23.56866481 0.1865807 29 1 C29 1.33 29 1.66 29 2 C22.565 2.495 22.565 2.495 16 3 C16 2.34 16 1.68 16 1 C10.72 1 5.44 1 0 1 C0 0.67 0 0.34 0 0 Z " fill="#A77DE1" transform="translate(782,576)"/>
<path d="M0 0 C2.65480572 0.185219 5.0931632 0.60377422 7.6875 1.1875 C9.0796875 1.4659375 9.0796875 1.4659375 10.5 1.75 C11.221875 1.894375 11.94375 2.03875 12.6875 2.1875 C12.3575 3.1775 12.0275 4.1675 11.6875 5.1875 C6.4075 4.1975 1.1275 3.2075 -4.3125 2.1875 C-2.3125 0.1875 -2.3125 0.1875 0 0 Z " fill="#1D1D27" transform="translate(841.3125,389.8125)"/>
<path d="M0 0 C3.00160543 0.31989899 6.00086463 0.65778487 9 1 C9.69996094 1.0721875 10.39992188 1.144375 11.12109375 1.21875 C12.75706376 1.40921636 14.38118972 1.69647307 16 2 C16.33 2.66 16.66 3.32 17 4 C10.74456802 6.02878875 5.76528535 3.39023396 0 1 C0 0.67 0 0.34 0 0 Z " fill="#AE8AE1" transform="translate(842,393)"/>
<path d="M0 0 C1.2065625 0.0309375 1.2065625 0.0309375 2.4375 0.0625 C2.4375 0.7225 2.4375 1.3825 2.4375 2.0625 C-3.58482181 3.52869907 -8.46617577 4.38778788 -14.5625 3.0625 C-11.98703318 2.34136929 -9.53899864 1.92372016 -6.875 1.5625 C-3.6332984 1.07318655 -3.06973489 0.07487158 0 0 Z " fill="#1C1B27" transform="translate(827.5625,568.9375)"/>
<path d="M0 0 C1.15837573 3.47512718 0.77265943 5.13670286 0.0625 8.6875 C-0.13214844 9.68136719 -0.32679688 10.67523437 -0.52734375 11.69921875 C-0.68332031 12.45847656 -0.83929687 13.21773437 -1 14 C-3 12 -3 12 -3.046875 9.43359375 C-2.94890625 8.44488281 -2.8509375 7.45617187 -2.75 6.4375 C-2.66234375 5.44621094 -2.5746875 4.45492187 -2.484375 3.43359375 C-2.32453125 2.63050781 -2.1646875 1.82742188 -2 1 C-1.34 0.67 -0.68 0.34 0 0 Z " fill="#191823" transform="translate(869,513)"/>
<path d="M0 0 C2.42130331 2.42130331 2.52840504 3.80111377 3.125 7.125 C3.29257812 8.03507812 3.46015625 8.94515625 3.6328125 9.8828125 C3.81457031 10.93082031 3.81457031 10.93082031 4 12 C3.01 12 2.02 12 1 12 C0.24753016 8.34514648 -0.49571879 4.69806223 -1 1 C-0.67 0.67 -0.34 0.34 0 0 Z " fill="#1F1E29" transform="translate(866,482)"/>
<path d="M0 0 C3.3125 0.25 3.3125 0.25 7 1 C7.99 2.32 8.98 3.64 10 5 C6.7 4.01 3.4 3.02 0 2 C0 1.34 0 0.68 0 0 Z " fill="#A77DE0" transform="translate(827,439)"/>
<path d="M0 0 C0.99 0 1.98 0 3 0 C3 0.66 3 1.32 3 2 C3.99 2.33 4.98 2.66 6 3 C6 3.66 6 4.32 6 5 C4.02 5 2.04 5 0 5 C0 3.35 0 1.7 0 0 Z " fill="#AA79EE" transform="translate(366,621)"/>
<path d="M0 0 C2.55363602 1.27681801 2.73324804 2.25638409 3.75 4.875 C4.03359375 5.57367188 4.3171875 6.27234375 4.609375 6.9921875 C5 9 5 9 3 12 C2.49166409 10.75336669 1.99368855 9.50250613 1.5 8.25 C1.2215625 7.55390625 0.943125 6.8578125 0.65625 6.140625 C0 4 0 4 0 0 Z " fill="#23232E" transform="translate(861,470)"/>
<path d="M0 0 C5.2676092 0.47887356 5.96314468 0.96314468 10 5 C6.37 4.01 2.74 3.02 -1 2 C-0.67 1.34 -0.34 0.68 0 0 Z " fill="#21202D" transform="translate(829,442)"/>
<path d="M0 0 C5.02254631 -0.2954439 7.89542386 0.01485372 12 3 C8.52128379 4.15957207 7.65780355 3.77456651 4.3125 2.5625 C3.50425781 2.27503906 2.69601562 1.98757813 1.86328125 1.69140625 C1.24839844 1.46324219 0.63351562 1.23507812 0 1 C0 0.67 0 0.34 0 0 Z " fill="#A87EE3" transform="translate(857,398)"/>
<path d="M0 0 C2.97 0.33 5.94 0.66 9 1 C9 1.99 9 2.98 9 4 C6.03 3.505 6.03 3.505 3 3 C3 2.34 3 1.68 3 1 C2.01 0.67 1.02 0.34 0 0 Z " fill="#201F2B" transform="translate(826,387)"/>
</svg>
